#usda 1.0
(
















    
        
            
        
    

    
        
            
        
    

    
        
            
        
    

    
        
            
        
    

    
        
            
        
    

    
        
            
        
    

    
        
            
        
    

    
        
            
        
    

    
        
            
        
    

    
        
            
        
    

    
        
            
        
    

    
        
            
        
    

    
        
            
        
    

    
        
            
        
    

    
        
            
        
    

    
        
            
        
    

    
        
            
        
    

    
        
            
        
    

    
        
            
        
    



    defaultPrim = "SM_Wing_Right"

    upAxis = "Y"
    metersPerUnit = 0.01
    doc = "Generated by ggen. Deterministic USD StaticMesh container."
)










def Xform "SM_Wing_Right"
{
    custom string owner_part_id = "SM_Wing_Right"
    
        
            
    
        def Xform "prim_pwf_right_00_group"
        {
            point3f[] points = [(0, 0, 0)]
            double3 xformOp:translate = (1.3, -0.5, 1.4)
            double3 xformOp:scale = (0.55, 0.05, 1.5)
            double3 xformOp:rotateXYZ = (1, 58, 0)
            uniform token[] xformOpOrder = ["xformOp:translate", "xformOp:rotateXYZ", "xformOp:scale"]

            
                
                
                
                def Mesh "prim_pwf_right_00_feather_blade_0"
                {
                    int[] faceVertexCounts = [4, 4, 4, 4, 4, 4]
                    int[] faceVertexIndices = [0, 1, 2, 3,  4, 5, 6, 7,  0, 1, 5, 4,  1, 2, 6, 5,  2, 3, 7, 6,  3, 0, 4, 7]
                    point3f[] points = [(-0.5, -0.5, -0.5), (0.5, -0.5, -0.5), (0.5, 0.5, -0.5), (-0.5, 0.5, -0.5), (-0.5, -0.5, 0.5), (0.5, -0.5, 0.5), (0.5, 0.5, 0.5), (-0.5, 0.5, 0.5)]
                    color3f[] primvars:displayColor = [(0.9, 0.9, 0.9)]
                    double3 xformOp:scale = (0.8, 0.05, 1.5)
                    double3 xformOp:translate = (-0.013000000000000001, 0, 0.0)
                    double3 xformOp:rotateXYZ = (0, 0, 0)
                    uniform token[] xformOpOrder = ["xformOp:translate", "xformOp:rotateXYZ", "xformOp:scale"]
                    rel material:binding = </ASSET_ReferenceFabric_001/Materials/M_WhiteArmor>
                }
                
                
                def Mesh "prim_pwf_right_00_feather_blade_1"
                {
                    int[] faceVertexCounts = [4, 4, 4, 4, 4, 4]
                    int[] faceVertexIndices = [0, 1, 2, 3,  4, 5, 6, 7,  0, 1, 5, 4,  1, 2, 6, 5,  2, 3, 7, 6,  3, 0, 4, 7]
                    point3f[] points = [(-0.5, -0.5, -0.5), (0.5, -0.5, -0.5), (0.5, 0.5, -0.5), (-0.5, 0.5, -0.5), (-0.5, -0.5, 0.5), (0.5, -0.5, 0.5), (0.5, 0.5, 0.5), (-0.5, 0.5, 0.5)]
                    color3f[] primvars:displayColor = [(0.9, 0.9, 0.9)]
                    double3 xformOp:scale = (0.7000000000000001, 0.05, 1.28)
                    double3 xformOp:translate = (-0.012, 0.05, 0.0)
                    double3 xformOp:rotateXYZ = (0, 20, 0)
                    uniform token[] xformOpOrder = ["xformOp:translate", "xformOp:rotateXYZ", "xformOp:scale"]
                    rel material:binding = </ASSET_ReferenceFabric_001/Materials/M_WhiteArmor>
                }
                
                
                def Mesh "prim_pwf_right_00_feather_blade_2"
                {
                    int[] faceVertexCounts = [4, 4, 4, 4, 4, 4]
                    int[] faceVertexIndices = [0, 1, 2, 3,  4, 5, 6, 7,  0, 1, 5, 4,  1, 2, 6, 5,  2, 3, 7, 6,  3, 0, 4, 7]
                    point3f[] points = [(-0.5, -0.5, -0.5), (0.5, -0.5, -0.5), (0.5, 0.5, -0.5), (-0.5, 0.5, -0.5), (-0.5, -0.5, 0.5), (0.5, -0.5, 0.5), (0.5, 0.5, 0.5), (-0.5, 0.5, 0.5)]
                    color3f[] primvars:displayColor = [(0.9, 0.9, 0.9)]
                    double3 xformOp:scale = (0.6000000000000001, 0.05, 1.06)
                    double3 xformOp:translate = (-0.011000000000000001, 0.1, 0.0)
                    double3 xformOp:rotateXYZ = (0, 0, 0)
                    uniform token[] xformOpOrder = ["xformOp:translate", "xformOp:rotateXYZ", "xformOp:scale"]
                    rel material:binding = </ASSET_ReferenceFabric_001/Materials/M_WhiteArmor>
                }
                
            
        }
    

        
    
        
            
    
        def Xform "prim_pwf_right_02_group"
        {
            point3f[] points = [(0, 0, 0)]
            double3 xformOp:translate = (1.5526, -0.4518, 1.4947)
            double3 xformOp:scale = (0.5184, 0.05, 1.4263)
            double3 xformOp:rotateXYZ = (1.7368, 58, 0)
            uniform token[] xformOpOrder = ["xformOp:translate", "xformOp:rotateXYZ", "xformOp:scale"]

            
                
                
                
                def Mesh "prim_pwf_right_02_feather_blade_0"
                {
                    int[] faceVertexCounts = [4, 4, 4, 4, 4, 4]
                    int[] faceVertexIndices = [0, 1, 2, 3,  4, 5, 6, 7,  0, 1, 5, 4,  1, 2, 6, 5,  2, 3, 7, 6,  3, 0, 4, 7]
                    point3f[] points = [(-0.5, -0.5, -0.5), (0.5, -0.5, -0.5), (0.5, 0.5, -0.5), (-0.5, 0.5, -0.5), (-0.5, -0.5, 0.5), (0.5, -0.5, 0.5), (0.5, 0.5, 0.5), (-0.5, 0.5, 0.5)]
                    color3f[] primvars:displayColor = [(0.9, 0.9, 0.9)]
                    double3 xformOp:scale = (0.8, 0.05, 1.5)
                    double3 xformOp:translate = (-0.015526, 0, 0.0)
                    double3 xformOp:rotateXYZ = (0, 0, 0)
                    uniform token[] xformOpOrder = ["xformOp:translate", "xformOp:rotateXYZ", "xformOp:scale"]
                    rel material:binding = </ASSET_ReferenceFabric_001/Materials/M_WhiteArmor>
                }
                
                
                def Mesh "prim_pwf_right_02_feather_blade_1"
                {
                    int[] faceVertexCounts = [4, 4, 4, 4, 4, 4]
                    int[] faceVertexIndices = [0, 1, 2, 3,  4, 5, 6, 7,  0, 1, 5, 4,  1, 2, 6, 5,  2, 3, 7, 6,  3, 0, 4, 7]
                    point3f[] points = [(-0.5, -0.5, -0.5), (0.5, -0.5, -0.5), (0.5, 0.5, -0.5), (-0.5, 0.5, -0.5), (-0.5, -0.5, 0.5), (0.5, -0.5, 0.5), (0.5, 0.5, 0.5), (-0.5, 0.5, 0.5)]
                    color3f[] primvars:displayColor = [(0.9, 0.9, 0.9)]
                    double3 xformOp:scale = (0.7000000000000001, 0.05, 1.28)
                    double3 xformOp:translate = (-0.014526, 0.05, 0.0)
                    double3 xformOp:rotateXYZ = (0, 20, 0)
                    uniform token[] xformOpOrder = ["xformOp:translate", "xformOp:rotateXYZ", "xformOp:scale"]
                    rel material:binding = </ASSET_ReferenceFabric_001/Materials/M_WhiteArmor>
                }
                
                
                def Mesh "prim_pwf_right_02_feather_blade_2"
                {
                    int[] faceVertexCounts = [4, 4, 4, 4, 4, 4]
                    int[] faceVertexIndices = [0, 1, 2, 3,  4, 5, 6, 7,  0, 1, 5, 4,  1, 2, 6, 5,  2, 3, 7, 6,  3, 0, 4, 7]
                    point3f[] points = [(-0.5, -0.5, -0.5), (0.5, -0.5, -0.5), (0.5, 0.5, -0.5), (-0.5, 0.5, -0.5), (-0.5, -0.5, 0.5), (0.5, -0.5, 0.5), (0.5, 0.5, 0.5), (-0.5, 0.5, 0.5)]
                    color3f[] primvars:displayColor = [(0.9, 0.9, 0.9)]
                    double3 xformOp:scale = (0.6000000000000001, 0.05, 1.06)
                    double3 xformOp:translate = (-0.013526, 0.1, 0.0)
                    double3 xformOp:rotateXYZ = (0, 0, 0)
                    uniform token[] xformOpOrder = ["xformOp:translate", "xformOp:rotateXYZ", "xformOp:scale"]
                    rel material:binding = </ASSET_ReferenceFabric_001/Materials/M_WhiteArmor>
                }
                
            
        }
    

        
    
        
            
    
        def Xform "prim_pwf_right_04_group"
        {
            point3f[] points = [(0, 0, 0)]
            double3 xformOp:translate = (1.8053, -0.3813, 1.5895)
            double3 xformOp:scale = (0.4868, 0.05, 1.3526)
            double3 xformOp:rotateXYZ = (2.4737, 58, 0)
            uniform token[] xformOpOrder = ["xformOp:translate", "xformOp:rotateXYZ", "xformOp:scale"]

            
                
                
                
                def Mesh "prim_pwf_right_04_feather_blade_0"
                {
                    int[] faceVertexCounts = [4, 4, 4, 4, 4, 4]
                    int[] faceVertexIndices = [0, 1, 2, 3,  4, 5, 6, 7,  0, 1, 5, 4,  1, 2, 6, 5,  2, 3, 7, 6,  3, 0, 4, 7]
                    point3f[] points = [(-0.5, -0.5, -0.5), (0.5, -0.5, -0.5), (0.5, 0.5, -0.5), (-0.5, 0.5, -0.5), (-0.5, -0.5, 0.5), (0.5, -0.5, 0.5), (0.5, 0.5, 0.5), (-0.5, 0.5, 0.5)]
                    color3f[] primvars:displayColor = [(0.9, 0.9, 0.9)]
                    double3 xformOp:scale = (0.8, 0.05, 1.5)
                    double3 xformOp:translate = (-0.018053, 0, 0.0)
                    double3 xformOp:rotateXYZ = (0, 0, 0)
                    uniform token[] xformOpOrder = ["xformOp:translate", "xformOp:rotateXYZ", "xformOp:scale"]
                    rel material:binding = </ASSET_ReferenceFabric_001/Materials/M_WhiteArmor>
                }
                
                
                def Mesh "prim_pwf_right_04_feather_blade_1"
                {
                    int[] faceVertexCounts = [4, 4, 4, 4, 4, 4]
                    int[] faceVertexIndices = [0, 1, 2, 3,  4, 5, 6, 7,  0, 1, 5, 4,  1, 2, 6, 5,  2, 3, 7, 6,  3, 0, 4, 7]
                    point3f[] points = [(-0.5, -0.5, -0.5), (0.5, -0.5, -0.5), (0.5, 0.5, -0.5), (-0.5, 0.5, -0.5), (-0.5, -0.5, 0.5), (0.5, -0.5, 0.5), (0.5, 0.5, 0.5), (-0.5, 0.5, 0.5)]
                    color3f[] primvars:displayColor = [(0.9, 0.9, 0.9)]
                    double3 xformOp:scale = (0.7000000000000001, 0.05, 1.28)
                    double3 xformOp:translate = (-0.017053, 0.05, 0.0)
                    double3 xformOp:rotateXYZ = (0, 20, 0)
                    uniform token[] xformOpOrder = ["xformOp:translate", "xformOp:rotateXYZ", "xformOp:scale"]
                    rel material:binding = </ASSET_ReferenceFabric_001/Materials/M_WhiteArmor>
                }
                
                
                def Mesh "prim_pwf_right_04_feather_blade_2"
                {
                    int[] faceVertexCounts = [4, 4, 4, 4, 4, 4]
                    int[] faceVertexIndices = [0, 1, 2, 3,  4, 5, 6, 7,  0, 1, 5, 4,  1, 2, 6, 5,  2, 3, 7, 6,  3, 0, 4, 7]
                    point3f[] points = [(-0.5, -0.5, -0.5), (0.5, -0.5, -0.5), (0.5, 0.5, -0.5), (-0.5, 0.5, -0.5), (-0.5, -0.5, 0.5), (0.5, -0.5, 0.5), (0.5, 0.5, 0.5), (-0.5, 0.5, 0.5)]
                    color3f[] primvars:displayColor = [(0.9, 0.9, 0.9)]
                    double3 xformOp:scale = (0.6000000000000001, 0.05, 1.06)
                    double3 xformOp:translate = (-0.016052999999999998, 0.1, 0.0)
                    double3 xformOp:rotateXYZ = (0, 0, 0)
                    uniform token[] xformOpOrder = ["xformOp:translate", "xformOp:rotateXYZ", "xformOp:scale"]
                    rel material:binding = </ASSET_ReferenceFabric_001/Materials/M_WhiteArmor>
                }
                
            
        }
    

        
    
        
            
    
        def Xform "prim_pwf_right_06_group"
        {
            point3f[] points = [(0, 0, 0)]
            double3 xformOp:translate = (2.0579, -0.2989, 1.6842)
            double3 xformOp:scale = (0.4553, 0.05, 1.2789)
            double3 xformOp:rotateXYZ = (3.2105, 58, 0)
            uniform token[] xformOpOrder = ["xformOp:translate", "xformOp:rotateXYZ", "xformOp:scale"]

            
                
                
                
                def Mesh "prim_pwf_right_06_feather_blade_0"
                {
                    int[] faceVertexCounts = [4, 4, 4, 4, 4, 4]
                    int[] faceVertexIndices = [0, 1, 2, 3,  4, 5, 6, 7,  0, 1, 5, 4,  1, 2, 6, 5,  2, 3, 7, 6,  3, 0, 4, 7]
                    point3f[] points = [(-0.5, -0.5, -0.5), (0.5, -0.5, -0.5), (0.5, 0.5, -0.5), (-0.5, 0.5, -0.5), (-0.5, -0.5, 0.5), (0.5, -0.5, 0.5), (0.5, 0.5, 0.5), (-0.5, 0.5, 0.5)]
                    color3f[] primvars:displayColor = [(0.9, 0.9, 0.9)]
                    double3 xformOp:scale = (0.8, 0.05, 1.5)
                    double3 xformOp:translate = (-0.020579, 0, 0.0)
                    double3 xformOp:rotateXYZ = (0, 0, 0)
                    uniform token[] xformOpOrder = ["xformOp:translate", "xformOp:rotateXYZ", "xformOp:scale"]
                    rel material:binding = </ASSET_ReferenceFabric_001/Materials/M_WhiteArmor>
                }
                
                
                def Mesh "prim_pwf_right_06_feather_blade_1"
                {
                    int[] faceVertexCounts = [4, 4, 4, 4, 4, 4]
                    int[] faceVertexIndices = [0, 1, 2, 3,  4, 5, 6, 7,  0, 1, 5, 4,  1, 2, 6, 5,  2, 3, 7, 6,  3, 0, 4, 7]
                    point3f[] points = [(-0.5, -0.5, -0.5), (0.5, -0.5, -0.5), (0.5, 0.5, -0.5), (-0.5, 0.5, -0.5), (-0.5, -0.5, 0.5), (0.5, -0.5, 0.5), (0.5, 0.5, 0.5), (-0.5, 0.5, 0.5)]
                    color3f[] primvars:displayColor = [(0.9, 0.9, 0.9)]
                    double3 xformOp:scale = (0.7000000000000001, 0.05, 1.28)
                    double3 xformOp:translate = (-0.019579, 0.05, 0.0)
                    double3 xformOp:rotateXYZ = (0, 20, 0)
                    uniform token[] xformOpOrder = ["xformOp:translate", "xformOp:rotateXYZ", "xformOp:scale"]
                    rel material:binding = </ASSET_ReferenceFabric_001/Materials/M_WhiteArmor>
                }
                
                
                def Mesh "prim_pwf_right_06_feather_blade_2"
                {
                    int[] faceVertexCounts = [4, 4, 4, 4, 4, 4]
                    int[] faceVertexIndices = [0, 1, 2, 3,  4, 5, 6, 7,  0, 1, 5, 4,  1, 2, 6, 5,  2, 3, 7, 6,  3, 0, 4, 7]
                    point3f[] points = [(-0.5, -0.5, -0.5), (0.5, -0.5, -0.5), (0.5, 0.5, -0.5), (-0.5, 0.5, -0.5), (-0.5, -0.5, 0.5), (0.5, -0.5, 0.5), (0.5, 0.5, 0.5), (-0.5, 0.5, 0.5)]
                    color3f[] primvars:displayColor = [(0.9, 0.9, 0.9)]
                    double3 xformOp:scale = (0.6000000000000001, 0.05, 1.06)
                    double3 xformOp:translate = (-0.018579, 0.1, 0.0)
                    double3 xformOp:rotateXYZ = (0, 0, 0)
                    uniform token[] xformOpOrder = ["xformOp:translate", "xformOp:rotateXYZ", "xformOp:scale"]
                    rel material:binding = </ASSET_ReferenceFabric_001/Materials/M_WhiteArmor>
                }
                
            
        }
    

        
    
        
            
    
        def Xform "prim_pwf_right_08_group"
        {
            point3f[] points = [(0, 0, 0)]
            double3 xformOp:translate = (2.3105, -0.2077, 1.7789)
            double3 xformOp:scale = (0.4237, 0.05, 1.2053)
            double3 xformOp:rotateXYZ = (3.9474, 58, 0)
            uniform token[] xformOpOrder = ["xformOp:translate", "xformOp:rotateXYZ", "xformOp:scale"]

            
                
                
                
                def Mesh "prim_pwf_right_08_feather_blade_0"
                {
                    int[] faceVertexCounts = [4, 4, 4, 4, 4, 4]
                    int[] faceVertexIndices = [0, 1, 2, 3,  4, 5, 6, 7,  0, 1, 5, 4,  1, 2, 6, 5,  2, 3, 7, 6,  3, 0, 4, 7]
                    point3f[] points = [(-0.5, -0.5, -0.5), (0.5, -0.5, -0.5), (0.5, 0.5, -0.5), (-0.5, 0.5, -0.5), (-0.5, -0.5, 0.5), (0.5, -0.5, 0.5), (0.5, 0.5, 0.5), (-0.5, 0.5, 0.5)]
                    color3f[] primvars:displayColor = [(0.9, 0.9, 0.9)]
                    double3 xformOp:scale = (0.8, 0.05, 1.5)
                    double3 xformOp:translate = (-0.023105000000000004, 0, 0.0)
                    double3 xformOp:rotateXYZ = (0, 0, 0)
                    uniform token[] xformOpOrder = ["xformOp:translate", "xformOp:rotateXYZ", "xformOp:scale"]
                    rel material:binding = </ASSET_ReferenceFabric_001/Materials/M_WhiteArmor>
                }
                
                
                def Mesh "prim_pwf_right_08_feather_blade_1"
                {
                    int[] faceVertexCounts = [4, 4, 4, 4, 4, 4]
                    int[] faceVertexIndices = [0, 1, 2, 3,  4, 5, 6, 7,  0, 1, 5, 4,  1, 2, 6, 5,  2, 3, 7, 6,  3, 0, 4, 7]
                    point3f[] points = [(-0.5, -0.5, -0.5), (0.5, -0.5, -0.5), (0.5, 0.5, -0.5), (-0.5, 0.5, -0.5), (-0.5, -0.5, 0.5), (0.5, -0.5, 0.5), (0.5, 0.5, 0.5), (-0.5, 0.5, 0.5)]
                    color3f[] primvars:displayColor = [(0.9, 0.9, 0.9)]
                    double3 xformOp:scale = (0.7000000000000001, 0.05, 1.28)
                    double3 xformOp:translate = (-0.022105000000000003, 0.05, 0.0)
                    double3 xformOp:rotateXYZ = (0, 20, 0)
                    uniform token[] xformOpOrder = ["xformOp:translate", "xformOp:rotateXYZ", "xformOp:scale"]
                    rel material:binding = </ASSET_ReferenceFabric_001/Materials/M_WhiteArmor>
                }
                
                
                def Mesh "prim_pwf_right_08_feather_blade_2"
                {
                    int[] faceVertexCounts = [4, 4, 4, 4, 4, 4]
                    int[] faceVertexIndices = [0, 1, 2, 3,  4, 5, 6, 7,  0, 1, 5, 4,  1, 2, 6, 5,  2, 3, 7, 6,  3, 0, 4, 7]
                    point3f[] points = [(-0.5, -0.5, -0.5), (0.5, -0.5, -0.5), (0.5, 0.5, -0.5), (-0.5, 0.5, -0.5), (-0.5, -0.5, 0.5), (0.5, -0.5, 0.5), (0.5, 0.5, 0.5), (-0.5, 0.5, 0.5)]
                    color3f[] primvars:displayColor = [(0.9, 0.9, 0.9)]
                    double3 xformOp:scale = (0.6000000000000001, 0.05, 1.06)
                    double3 xformOp:translate = (-0.021105000000000006, 0.1, 0.0)
                    double3 xformOp:rotateXYZ = (0, 0, 0)
                    uniform token[] xformOpOrder = ["xformOp:translate", "xformOp:rotateXYZ", "xformOp:scale"]
                    rel material:binding = </ASSET_ReferenceFabric_001/Materials/M_WhiteArmor>
                }
                
            
        }
    

        
    
        
            
    
        def Xform "prim_pwf_right_10_group"
        {
            point3f[] points = [(0, 0, 0)]
            double3 xformOp:translate = (2.5632, -0.1093, 1.8737)
            double3 xformOp:scale = (0.3921, 0.05, 1.1316)
            double3 xformOp:rotateXYZ = (4.6842, 58, 0)
            uniform token[] xformOpOrder = ["xformOp:translate", "xformOp:rotateXYZ", "xformOp:scale"]

            
                
                
                
                def Mesh "prim_pwf_right_10_feather_blade_0"
                {
                    int[] faceVertexCounts = [4, 4, 4, 4, 4, 4]
                    int[] faceVertexIndices = [0, 1, 2, 3,  4, 5, 6, 7,  0, 1, 5, 4,  1, 2, 6, 5,  2, 3, 7, 6,  3, 0, 4, 7]
                    point3f[] points = [(-0.5, -0.5, -0.5), (0.5, -0.5, -0.5), (0.5, 0.5, -0.5), (-0.5, 0.5, -0.5), (-0.5, -0.5, 0.5), (0.5, -0.5, 0.5), (0.5, 0.5, 0.5), (-0.5, 0.5, 0.5)]
                    color3f[] primvars:displayColor = [(0.9, 0.9, 0.9)]
                    double3 xformOp:scale = (0.8, 0.05, 1.5)
                    double3 xformOp:translate = (-0.025632000000000002, 0, 0.0)
                    double3 xformOp:rotateXYZ = (0, 0, 0)
                    uniform token[] xformOpOrder = ["xformOp:translate", "xformOp:rotateXYZ", "xformOp:scale"]
                    rel material:binding = </ASSET_ReferenceFabric_001/Materials/M_WhiteArmor>
                }
                
                
                def Mesh "prim_pwf_right_10_feather_blade_1"
                {
                    int[] faceVertexCounts = [4, 4, 4, 4, 4, 4]
                    int[] faceVertexIndices = [0, 1, 2, 3,  4, 5, 6, 7,  0, 1, 5, 4,  1, 2, 6, 5,  2, 3, 7, 6,  3, 0, 4, 7]
                    point3f[] points = [(-0.5, -0.5, -0.5), (0.5, -0.5, -0.5), (0.5, 0.5, -0.5), (-0.5, 0.5, -0.5), (-0.5, -0.5, 0.5), (0.5, -0.5, 0.5), (0.5, 0.5, 0.5), (-0.5, 0.5, 0.5)]
                    color3f[] primvars:displayColor = [(0.9, 0.9, 0.9)]
                    double3 xformOp:scale = (0.7000000000000001, 0.05, 1.28)
                    double3 xformOp:translate = (-0.024632, 0.05, 0.0)
                    double3 xformOp:rotateXYZ = (0, 20, 0)
                    uniform token[] xformOpOrder = ["xformOp:translate", "xformOp:rotateXYZ", "xformOp:scale"]
                    rel material:binding = </ASSET_ReferenceFabric_001/Materials/M_WhiteArmor>
                }
                
                
                def Mesh "prim_pwf_right_10_feather_blade_2"
                {
                    int[] faceVertexCounts = [4, 4, 4, 4, 4, 4]
                    int[] faceVertexIndices = [0, 1, 2, 3,  4, 5, 6, 7,  0, 1, 5, 4,  1, 2, 6, 5,  2, 3, 7, 6,  3, 0, 4, 7]
                    point3f[] points = [(-0.5, -0.5, -0.5), (0.5, -0.5, -0.5), (0.5, 0.5, -0.5), (-0.5, 0.5, -0.5), (-0.5, -0.5, 0.5), (0.5, -0.5, 0.5), (0.5, 0.5, 0.5), (-0.5, 0.5, 0.5)]
                    color3f[] primvars:displayColor = [(0.9, 0.9, 0.9)]
                    double3 xformOp:scale = (0.6000000000000001, 0.05, 1.06)
                    double3 xformOp:translate = (-0.023632, 0.1, 0.0)
                    double3 xformOp:rotateXYZ = (0, 0, 0)
                    uniform token[] xformOpOrder = ["xformOp:translate", "xformOp:rotateXYZ", "xformOp:scale"]
                    rel material:binding = </ASSET_ReferenceFabric_001/Materials/M_WhiteArmor>
                }
                
            
        }
    

        
    
        
            
    
        def Xform "prim_pwf_right_12_group"
        {
            point3f[] points = [(0, 0, 0)]
            double3 xformOp:translate = (2.8158, -0.0048, 1.9684)
            double3 xformOp:scale = (0.3605, 0.05, 1.0579)
            double3 xformOp:rotateXYZ = (5.4211, 58, 0)
            uniform token[] xformOpOrder = ["xformOp:translate", "xformOp:rotateXYZ", "xformOp:scale"]

            
                
                
                
                def Mesh "prim_pwf_right_12_feather_blade_0"
                {
                    int[] faceVertexCounts = [4, 4, 4, 4, 4, 4]
                    int[] faceVertexIndices = [0, 1, 2, 3,  4, 5, 6, 7,  0, 1, 5, 4,  1, 2, 6, 5,  2, 3, 7, 6,  3, 0, 4, 7]
                    point3f[] points = [(-0.5, -0.5, -0.5), (0.5, -0.5, -0.5), (0.5, 0.5, -0.5), (-0.5, 0.5, -0.5), (-0.5, -0.5, 0.5), (0.5, -0.5, 0.5), (0.5, 0.5, 0.5), (-0.5, 0.5, 0.5)]
                    color3f[] primvars:displayColor = [(0.9, 0.9, 0.9)]
                    double3 xformOp:scale = (0.8, 0.05, 1.5)
                    double3 xformOp:translate = (-0.028158, 0, 0.0)
                    double3 xformOp:rotateXYZ = (0, 0, 0)
                    uniform token[] xformOpOrder = ["xformOp:translate", "xformOp:rotateXYZ", "xformOp:scale"]
                    rel material:binding = </ASSET_ReferenceFabric_001/Materials/M_WhiteArmor>
                }
                
                
                def Mesh "prim_pwf_right_12_feather_blade_1"
                {
                    int[] faceVertexCounts = [4, 4, 4, 4, 4, 4]
                    int[] faceVertexIndices = [0, 1, 2, 3,  4, 5, 6, 7,  0, 1, 5, 4,  1, 2, 6, 5,  2, 3, 7, 6,  3, 0, 4, 7]
                    point3f[] points = [(-0.5, -0.5, -0.5), (0.5, -0.5, -0.5), (0.5, 0.5, -0.5), (-0.5, 0.5, -0.5), (-0.5, -0.5, 0.5), (0.5, -0.5, 0.5), (0.5, 0.5, 0.5), (-0.5, 0.5, 0.5)]
                    color3f[] primvars:displayColor = [(0.9, 0.9, 0.9)]
                    double3 xformOp:scale = (0.7000000000000001, 0.05, 1.28)
                    double3 xformOp:translate = (-0.027157999999999998, 0.05, 0.0)
                    double3 xformOp:rotateXYZ = (0, 20, 0)
                    uniform token[] xformOpOrder = ["xformOp:translate", "xformOp:rotateXYZ", "xformOp:scale"]
                    rel material:binding = </ASSET_ReferenceFabric_001/Materials/M_WhiteArmor>
                }
                
                
                def Mesh "prim_pwf_right_12_feather_blade_2"
                {
                    int[] faceVertexCounts = [4, 4, 4, 4, 4, 4]
                    int[] faceVertexIndices = [0, 1, 2, 3,  4, 5, 6, 7,  0, 1, 5, 4,  1, 2, 6, 5,  2, 3, 7, 6,  3, 0, 4, 7]
                    point3f[] points = [(-0.5, -0.5, -0.5), (0.5, -0.5, -0.5), (0.5, 0.5, -0.5), (-0.5, 0.5, -0.5), (-0.5, -0.5, 0.5), (0.5, -0.5, 0.5), (0.5, 0.5, 0.5), (-0.5, 0.5, 0.5)]
                    color3f[] primvars:displayColor = [(0.9, 0.9, 0.9)]
                    double3 xformOp:scale = (0.6000000000000001, 0.05, 1.06)
                    double3 xformOp:translate = (-0.026158, 0.1, 0.0)
                    double3 xformOp:rotateXYZ = (0, 0, 0)
                    uniform token[] xformOpOrder = ["xformOp:translate", "xformOp:rotateXYZ", "xformOp:scale"]
                    rel material:binding = </ASSET_ReferenceFabric_001/Materials/M_WhiteArmor>
                }
                
            
        }
    

        
    
        
            
    
        def Xform "prim_pwf_right_14_group"
        {
            point3f[] points = [(0, 0, 0)]
            double3 xformOp:translate = (3.0684, 0.1051, 2.0632)
            double3 xformOp:scale = (0.3289, 0.05, 0.9842)
            double3 xformOp:rotateXYZ = (6.1579, 58, 0)
            uniform token[] xformOpOrder = ["xformOp:translate", "xformOp:rotateXYZ", "xformOp:scale"]

            
                
                
                
                def Mesh "prim_pwf_right_14_feather_blade_0"
                {
                    int[] faceVertexCounts = [4, 4, 4, 4, 4, 4]
                    int[] faceVertexIndices = [0, 1, 2, 3,  4, 5, 6, 7,  0, 1, 5, 4,  1, 2, 6, 5,  2, 3, 7, 6,  3, 0, 4, 7]
                    point3f[] points = [(-0.5, -0.5, -0.5), (0.5, -0.5, -0.5), (0.5, 0.5, -0.5), (-0.5, 0.5, -0.5), (-0.5, -0.5, 0.5), (0.5, -0.5, 0.5), (0.5, 0.5, 0.5), (-0.5, 0.5, 0.5)]
                    color3f[] primvars:displayColor = [(0.9, 0.9, 0.9)]
                    double3 xformOp:scale = (0.8, 0.05, 1.5)
                    double3 xformOp:translate = (-0.030684, 0, 0.0)
                    double3 xformOp:rotateXYZ = (0, 0, 0)
                    uniform token[] xformOpOrder = ["xformOp:translate", "xformOp:rotateXYZ", "xformOp:scale"]
                    rel material:binding = </ASSET_ReferenceFabric_001/Materials/M_WhiteArmor>
                }
                
                
                def Mesh "prim_pwf_right_14_feather_blade_1"
                {
                    int[] faceVertexCounts = [4, 4, 4, 4, 4, 4]
                    int[] faceVertexIndices = [0, 1, 2, 3,  4, 5, 6, 7,  0, 1, 5, 4,  1, 2, 6, 5,  2, 3, 7, 6,  3, 0, 4, 7]
                    point3f[] points = [(-0.5, -0.5, -0.5), (0.5, -0.5, -0.5), (0.5, 0.5, -0.5), (-0.5, 0.5, -0.5), (-0.5, -0.5, 0.5), (0.5, -0.5, 0.5), (0.5, 0.5, 0.5), (-0.5, 0.5, 0.5)]
                    color3f[] primvars:displayColor = [(0.9, 0.9, 0.9)]
                    double3 xformOp:scale = (0.7000000000000001, 0.05, 1.28)
                    double3 xformOp:translate = (-0.029684, 0.05, 0.0)
                    double3 xformOp:rotateXYZ = (0, 20, 0)
                    uniform token[] xformOpOrder = ["xformOp:translate", "xformOp:rotateXYZ", "xformOp:scale"]
                    rel material:binding = </ASSET_ReferenceFabric_001/Materials/M_WhiteArmor>
                }
                
                
                def Mesh "prim_pwf_right_14_feather_blade_2"
                {
                    int[] faceVertexCounts = [4, 4, 4, 4, 4, 4]
                    int[] faceVertexIndices = [0, 1, 2, 3,  4, 5, 6, 7,  0, 1, 5, 4,  1, 2, 6, 5,  2, 3, 7, 6,  3, 0, 4, 7]
                    point3f[] points = [(-0.5, -0.5, -0.5), (0.5, -0.5, -0.5), (0.5, 0.5, -0.5), (-0.5, 0.5, -0.5), (-0.5, -0.5, 0.5), (0.5, -0.5, 0.5), (0.5, 0.5, 0.5), (-0.5, 0.5, 0.5)]
                    color3f[] primvars:displayColor = [(0.9, 0.9, 0.9)]
                    double3 xformOp:scale = (0.6000000000000001, 0.05, 1.06)
                    double3 xformOp:translate = (-0.028684, 0.1, 0.0)
                    double3 xformOp:rotateXYZ = (0, 0, 0)
                    uniform token[] xformOpOrder = ["xformOp:translate", "xformOp:rotateXYZ", "xformOp:scale"]
                    rel material:binding = </ASSET_ReferenceFabric_001/Materials/M_WhiteArmor>
                }
                
            
        }
    

        
    
        
            
    
        def Xform "prim_pwf_right_16_group"
        {
            point3f[] points = [(0, 0, 0)]
            double3 xformOp:translate = (3.3211, 0.2198, 2.1579)
            double3 xformOp:scale = (0.2974, 0.05, 0.9105)
            double3 xformOp:rotateXYZ = (6.8947, 58, 0)
            uniform token[] xformOpOrder = ["xformOp:translate", "xformOp:rotateXYZ", "xformOp:scale"]

            
                
                
                
                def Mesh "prim_pwf_right_16_feather_blade_0"
                {
                    int[] faceVertexCounts = [4, 4, 4, 4, 4, 4]
                    int[] faceVertexIndices = [0, 1, 2, 3,  4, 5, 6, 7,  0, 1, 5, 4,  1, 2, 6, 5,  2, 3, 7, 6,  3, 0, 4, 7]
                    point3f[] points = [(-0.5, -0.5, -0.5), (0.5, -0.5, -0.5), (0.5, 0.5, -0.5), (-0.5, 0.5, -0.5), (-0.5, -0.5, 0.5), (0.5, -0.5, 0.5), (0.5, 0.5, 0.5), (-0.5, 0.5, 0.5)]
                    color3f[] primvars:displayColor = [(0.9, 0.9, 0.9)]
                    double3 xformOp:scale = (0.8, 0.05, 1.5)
                    double3 xformOp:translate = (-0.033211, 0, 0.0)
                    double3 xformOp:rotateXYZ = (0, 0, 0)
                    uniform token[] xformOpOrder = ["xformOp:translate", "xformOp:rotateXYZ", "xformOp:scale"]
                    rel material:binding = </ASSET_ReferenceFabric_001/Materials/M_WhiteArmor>
                }
                
                
                def Mesh "prim_pwf_right_16_feather_blade_1"
                {
                    int[] faceVertexCounts = [4, 4, 4, 4, 4, 4]
                    int[] faceVertexIndices = [0, 1, 2, 3,  4, 5, 6, 7,  0, 1, 5, 4,  1, 2, 6, 5,  2, 3, 7, 6,  3, 0, 4, 7]
                    point3f[] points = [(-0.5, -0.5, -0.5), (0.5, -0.5, -0.5), (0.5, 0.5, -0.5), (-0.5, 0.5, -0.5), (-0.5, -0.5, 0.5), (0.5, -0.5, 0.5), (0.5, 0.5, 0.5), (-0.5, 0.5, 0.5)]
                    color3f[] primvars:displayColor = [(0.9, 0.9, 0.9)]
                    double3 xformOp:scale = (0.7000000000000001, 0.05, 1.28)
                    double3 xformOp:translate = (-0.032211, 0.05, 0.0)
                    double3 xformOp:rotateXYZ = (0, 20, 0)
                    uniform token[] xformOpOrder = ["xformOp:translate", "xformOp:rotateXYZ", "xformOp:scale"]
                    rel material:binding = </ASSET_ReferenceFabric_001/Materials/M_WhiteArmor>
                }
                
                
                def Mesh "prim_pwf_right_16_feather_blade_2"
                {
                    int[] faceVertexCounts = [4, 4, 4, 4, 4, 4]
                    int[] faceVertexIndices = [0, 1, 2, 3,  4, 5, 6, 7,  0, 1, 5, 4,  1, 2, 6, 5,  2, 3, 7, 6,  3, 0, 4, 7]
                    point3f[] points = [(-0.5, -0.5, -0.5), (0.5, -0.5, -0.5), (0.5, 0.5, -0.5), (-0.5, 0.5, -0.5), (-0.5, -0.5, 0.5), (0.5, -0.5, 0.5), (0.5, 0.5, 0.5), (-0.5, 0.5, 0.5)]
                    color3f[] primvars:displayColor = [(0.9, 0.9, 0.9)]
                    double3 xformOp:scale = (0.6000000000000001, 0.05, 1.06)
                    double3 xformOp:translate = (-0.031210999999999996, 0.1, 0.0)
                    double3 xformOp:rotateXYZ = (0, 0, 0)
                    uniform token[] xformOpOrder = ["xformOp:translate", "xformOp:rotateXYZ", "xformOp:scale"]
                    rel material:binding = </ASSET_ReferenceFabric_001/Materials/M_WhiteArmor>
                }
                
            
        }
    

        
    
        
            
    
        def Xform "prim_pwf_right_18_group"
        {
            point3f[] points = [(0, 0, 0)]
            double3 xformOp:translate = (3.5737, 0.3389, 2.2526)
            double3 xformOp:scale = (0.2658, 0.05, 0.8368)
            double3 xformOp:rotateXYZ = (7.6316, 58, 0)
            uniform token[] xformOpOrder = ["xformOp:translate", "xformOp:rotateXYZ", "xformOp:scale"]

            
                
                
                
                def Mesh "prim_pwf_right_18_feather_blade_0"
                {
                    int[] faceVertexCounts = [4, 4, 4, 4, 4, 4]
                    int[] faceVertexIndices = [0, 1, 2, 3,  4, 5, 6, 7,  0, 1, 5, 4,  1, 2, 6, 5,  2, 3, 7, 6,  3, 0, 4, 7]
                    point3f[] points = [(-0.5, -0.5, -0.5), (0.5, -0.5, -0.5), (0.5, 0.5, -0.5), (-0.5, 0.5, -0.5), (-0.5, -0.5, 0.5), (0.5, -0.5, 0.5), (0.5, 0.5, 0.5), (-0.5, 0.5, 0.5)]
                    color3f[] primvars:displayColor = [(0.9, 0.9, 0.9)]
                    double3 xformOp:scale = (0.8, 0.05, 1.5)
                    double3 xformOp:translate = (-0.035737000000000005, 0, 0.0)
                    double3 xformOp:rotateXYZ = (0, 0, 0)
                    uniform token[] xformOpOrder = ["xformOp:translate", "xformOp:rotateXYZ", "xformOp:scale"]
                    rel material:binding = </ASSET_ReferenceFabric_001/Materials/M_WhiteArmor>
                }
                
                
                def Mesh "prim_pwf_right_18_feather_blade_1"
                {
                    int[] faceVertexCounts = [4, 4, 4, 4, 4, 4]
                    int[] faceVertexIndices = [0, 1, 2, 3,  4, 5, 6, 7,  0, 1, 5, 4,  1, 2, 6, 5,  2, 3, 7, 6,  3, 0, 4, 7]
                    point3f[] points = [(-0.5, -0.5, -0.5), (0.5, -0.5, -0.5), (0.5, 0.5, -0.5), (-0.5, 0.5, -0.5), (-0.5, -0.5, 0.5), (0.5, -0.5, 0.5), (0.5, 0.5, 0.5), (-0.5, 0.5, 0.5)]
                    color3f[] primvars:displayColor = [(0.9, 0.9, 0.9)]
                    double3 xformOp:scale = (0.7000000000000001, 0.05, 1.28)
                    double3 xformOp:translate = (-0.034737000000000004, 0.05, 0.0)
                    double3 xformOp:rotateXYZ = (0, 20, 0)
                    uniform token[] xformOpOrder = ["xformOp:translate", "xformOp:rotateXYZ", "xformOp:scale"]
                    rel material:binding = </ASSET_ReferenceFabric_001/Materials/M_WhiteArmor>
                }
                
                
                def Mesh "prim_pwf_right_18_feather_blade_2"
                {
                    int[] faceVertexCounts = [4, 4, 4, 4, 4, 4]
                    int[] faceVertexIndices = [0, 1, 2, 3,  4, 5, 6, 7,  0, 1, 5, 4,  1, 2, 6, 5,  2, 3, 7, 6,  3, 0, 4, 7]
                    point3f[] points = [(-0.5, -0.5, -0.5), (0.5, -0.5, -0.5), (0.5, 0.5, -0.5), (-0.5, 0.5, -0.5), (-0.5, -0.5, 0.5), (0.5, -0.5, 0.5), (0.5, 0.5, 0.5), (-0.5, 0.5, 0.5)]
                    color3f[] primvars:displayColor = [(0.9, 0.9, 0.9)]
                    double3 xformOp:scale = (0.6000000000000001, 0.05, 1.06)
                    double3 xformOp:translate = (-0.033737, 0.1, 0.0)
                    double3 xformOp:rotateXYZ = (0, 0, 0)
                    uniform token[] xformOpOrder = ["xformOp:translate", "xformOp:rotateXYZ", "xformOp:scale"]
                    rel material:binding = </ASSET_ReferenceFabric_001/Materials/M_WhiteArmor>
                }
                
            
        }
    

        
    
        
            
    
        def Xform "prim_swf_right_00_group"
        {
            point3f[] points = [(0, 0, 0)]
            double3 xformOp:translate = (1.6, -0.5, 1.7)
            double3 xformOp:scale = (0.45, 0.05, 1.2)
            double3 xformOp:rotateXYZ = (0.5, 74, 0)
            uniform token[] xformOpOrder = ["xformOp:translate", "xformOp:rotateXYZ", "xformOp:scale"]

            
                
                
                
                def Mesh "prim_swf_right_00_feather_blade_0"
                {
                    int[] faceVertexCounts = [4, 4, 4, 4, 4, 4]
                    int[] faceVertexIndices = [0, 1, 2, 3,  4, 5, 6, 7,  0, 1, 5, 4,  1, 2, 6, 5,  2, 3, 7, 6,  3, 0, 4, 7]
                    point3f[] points = [(-0.5, -0.5, -0.5), (0.5, -0.5, -0.5), (0.5, 0.5, -0.5), (-0.5, 0.5, -0.5), (-0.5, -0.5, 0.5), (0.5, -0.5, 0.5), (0.5, 0.5, 0.5), (-0.5, 0.5, 0.5)]
                    color3f[] primvars:displayColor = [(0.9, 0.9, 0.9)]
                    double3 xformOp:scale = (0.8, 0.05, 1.5)
                    double3 xformOp:translate = (-0.016, 0, 0.0)
                    double3 xformOp:rotateXYZ = (0, 0, 0)
                    uniform token[] xformOpOrder = ["xformOp:translate", "xformOp:rotateXYZ", "xformOp:scale"]
                    rel material:binding = </ASSET_ReferenceFabric_001/Materials/M_WhiteArmor>
                }
                
                
                def Mesh "prim_swf_right_00_feather_blade_1"
                {
                    int[] faceVertexCounts = [4, 4, 4, 4, 4, 4]
                    int[] faceVertexIndices = [0, 1, 2, 3,  4, 5, 6, 7,  0, 1, 5, 4,  1, 2, 6, 5,  2, 3, 7, 6,  3, 0, 4, 7]
                    point3f[] points = [(-0.5, -0.5, -0.5), (0.5, -0.5, -0.5), (0.5, 0.5, -0.5), (-0.5, 0.5, -0.5), (-0.5, -0.5, 0.5), (0.5, -0.5, 0.5), (0.5, 0.5, 0.5), (-0.5, 0.5, 0.5)]
                    color3f[] primvars:displayColor = [(0.9, 0.9, 0.9)]
                    double3 xformOp:scale = (0.7000000000000001, 0.05, 1.28)
                    double3 xformOp:translate = (-0.015, 0.05, 0.0)
                    double3 xformOp:rotateXYZ = (0, 20, 0)
                    uniform token[] xformOpOrder = ["xformOp:translate", "xformOp:rotateXYZ", "xformOp:scale"]
                    rel material:binding = </ASSET_ReferenceFabric_001/Materials/M_WhiteArmor>
                }
                
                
                def Mesh "prim_swf_right_00_feather_blade_2"
                {
                    int[] faceVertexCounts = [4, 4, 4, 4, 4, 4]
                    int[] faceVertexIndices = [0, 1, 2, 3,  4, 5, 6, 7,  0, 1, 5, 4,  1, 2, 6, 5,  2, 3, 7, 6,  3, 0, 4, 7]
                    point3f[] points = [(-0.5, -0.5, -0.5), (0.5, -0.5, -0.5), (0.5, 0.5, -0.5), (-0.5, 0.5, -0.5), (-0.5, -0.5, 0.5), (0.5, -0.5, 0.5), (0.5, 0.5, 0.5), (-0.5, 0.5, 0.5)]
                    color3f[] primvars:displayColor = [(0.9, 0.9, 0.9)]
                    double3 xformOp:scale = (0.6000000000000001, 0.05, 1.06)
                    double3 xformOp:translate = (-0.014, 0.1, 0.0)
                    double3 xformOp:rotateXYZ = (0, 0, 0)
                    uniform token[] xformOpOrder = ["xformOp:translate", "xformOp:rotateXYZ", "xformOp:scale"]
                    rel material:binding = </ASSET_ReferenceFabric_001/Materials/M_WhiteArmor>
                }
                
            
        }
    

        
    
        
            
    
        def Xform "prim_swf_right_01_group"
        {
            point3f[] points = [(0, 0, 0)]
            double3 xformOp:translate = (1.8286, -0.4402, 1.8)
            double3 xformOp:scale = (0.4186, 0.05, 1.1286)
            double3 xformOp:rotateXYZ = (1.3571, 76, 0)
            uniform token[] xformOpOrder = ["xformOp:translate", "xformOp:rotateXYZ", "xformOp:scale"]

            
                
                
                
                def Mesh "prim_swf_right_01_feather_blade_0"
                {
                    int[] faceVertexCounts = [4, 4, 4, 4, 4, 4]
                    int[] faceVertexIndices = [0, 1, 2, 3,  4, 5, 6, 7,  0, 1, 5, 4,  1, 2, 6, 5,  2, 3, 7, 6,  3, 0, 4, 7]
                    point3f[] points = [(-0.5, -0.5, -0.5), (0.5, -0.5, -0.5), (0.5, 0.5, -0.5), (-0.5, 0.5, -0.5), (-0.5, -0.5, 0.5), (0.5, -0.5, 0.5), (0.5, 0.5, 0.5), (-0.5, 0.5, 0.5)]
                    color3f[] primvars:displayColor = [(0.9, 0.9, 0.9)]
                    double3 xformOp:scale = (0.8, 0.05, 1.5)
                    double3 xformOp:translate = (-0.018286, 0, 0.0)
                    double3 xformOp:rotateXYZ = (0, 0, 0)
                    uniform token[] xformOpOrder = ["xformOp:translate", "xformOp:rotateXYZ", "xformOp:scale"]
                    rel material:binding = </ASSET_ReferenceFabric_001/Materials/M_WhiteArmor>
                }
                
                
                def Mesh "prim_swf_right_01_feather_blade_1"
                {
                    int[] faceVertexCounts = [4, 4, 4, 4, 4, 4]
                    int[] faceVertexIndices = [0, 1, 2, 3,  4, 5, 6, 7,  0, 1, 5, 4,  1, 2, 6, 5,  2, 3, 7, 6,  3, 0, 4, 7]
                    point3f[] points = [(-0.5, -0.5, -0.5), (0.5, -0.5, -0.5), (0.5, 0.5, -0.5), (-0.5, 0.5, -0.5), (-0.5, -0.5, 0.5), (0.5, -0.5, 0.5), (0.5, 0.5, 0.5), (-0.5, 0.5, 0.5)]
                    color3f[] primvars:displayColor = [(0.9, 0.9, 0.9)]
                    double3 xformOp:scale = (0.7000000000000001, 0.05, 1.28)
                    double3 xformOp:translate = (-0.017286, 0.05, 0.0)
                    double3 xformOp:rotateXYZ = (0, 20, 0)
                    uniform token[] xformOpOrder = ["xformOp:translate", "xformOp:rotateXYZ", "xformOp:scale"]
                    rel material:binding = </ASSET_ReferenceFabric_001/Materials/M_WhiteArmor>
                }
                
                
                def Mesh "prim_swf_right_01_feather_blade_2"
                {
                    int[] faceVertexCounts = [4, 4, 4, 4, 4, 4]
                    int[] faceVertexIndices = [0, 1, 2, 3,  4, 5, 6, 7,  0, 1, 5, 4,  1, 2, 6, 5,  2, 3, 7, 6,  3, 0, 4, 7]
                    point3f[] points = [(-0.5, -0.5, -0.5), (0.5, -0.5, -0.5), (0.5, 0.5, -0.5), (-0.5, 0.5, -0.5), (-0.5, -0.5, 0.5), (0.5, -0.5, 0.5), (0.5, 0.5, 0.5), (-0.5, 0.5, 0.5)]
                    color3f[] primvars:displayColor = [(0.9, 0.9, 0.9)]
                    double3 xformOp:scale = (0.6000000000000001, 0.05, 1.06)
                    double3 xformOp:translate = (-0.016286000000000002, 0.1, 0.0)
                    double3 xformOp:rotateXYZ = (0, 0, 0)
                    uniform token[] xformOpOrder = ["xformOp:translate", "xformOp:rotateXYZ", "xformOp:scale"]
                    rel material:binding = </ASSET_ReferenceFabric_001/Materials/M_WhiteArmor>
                }
                
            
        }
    

        
    
        
            
    
        def Xform "prim_swf_right_02_group"
        {
            point3f[] points = [(0, 0, 0)]
            double3 xformOp:translate = (2.0571, -0.3528, 1.9)
            double3 xformOp:scale = (0.3871, 0.05, 1.0571)
            double3 xformOp:rotateXYZ = (2.2143, 74, 0)
            uniform token[] xformOpOrder = ["xformOp:translate", "xformOp:rotateXYZ", "xformOp:scale"]

            
                
                
                
                def Mesh "prim_swf_right_02_feather_blade_0"
                {
                    int[] faceVertexCounts = [4, 4, 4, 4, 4, 4]
                    int[] faceVertexIndices = [0, 1, 2, 3,  4, 5, 6, 7,  0, 1, 5, 4,  1, 2, 6, 5,  2, 3, 7, 6,  3, 0, 4, 7]
                    point3f[] points = [(-0.5, -0.5, -0.5), (0.5, -0.5, -0.5), (0.5, 0.5, -0.5), (-0.5, 0.5, -0.5), (-0.5, -0.5, 0.5), (0.5, -0.5, 0.5), (0.5, 0.5, 0.5), (-0.5, 0.5, 0.5)]
                    color3f[] primvars:displayColor = [(0.9, 0.9, 0.9)]
                    double3 xformOp:scale = (0.8, 0.05, 1.5)
                    double3 xformOp:translate = (-0.020571000000000002, 0, 0.0)
                    double3 xformOp:rotateXYZ = (0, 0, 0)
                    uniform token[] xformOpOrder = ["xformOp:translate", "xformOp:rotateXYZ", "xformOp:scale"]
                    rel material:binding = </ASSET_ReferenceFabric_001/Materials/M_WhiteArmor>
                }
                
                
                def Mesh "prim_swf_right_02_feather_blade_1"
                {
                    int[] faceVertexCounts = [4, 4, 4, 4, 4, 4]
                    int[] faceVertexIndices = [0, 1, 2, 3,  4, 5, 6, 7,  0, 1, 5, 4,  1, 2, 6, 5,  2, 3, 7, 6,  3, 0, 4, 7]
                    point3f[] points = [(-0.5, -0.5, -0.5), (0.5, -0.5, -0.5), (0.5, 0.5, -0.5), (-0.5, 0.5, -0.5), (-0.5, -0.5, 0.5), (0.5, -0.5, 0.5), (0.5, 0.5, 0.5), (-0.5, 0.5, 0.5)]
                    color3f[] primvars:displayColor = [(0.9, 0.9, 0.9)]
                    double3 xformOp:scale = (0.7000000000000001, 0.05, 1.28)
                    double3 xformOp:translate = (-0.019571, 0.05, 0.0)
                    double3 xformOp:rotateXYZ = (0, 20, 0)
                    uniform token[] xformOpOrder = ["xformOp:translate", "xformOp:rotateXYZ", "xformOp:scale"]
                    rel material:binding = </ASSET_ReferenceFabric_001/Materials/M_WhiteArmor>
                }
                
                
                def Mesh "prim_swf_right_02_feather_blade_2"
                {
                    int[] faceVertexCounts = [4, 4, 4, 4, 4, 4]
                    int[] faceVertexIndices = [0, 1, 2, 3,  4, 5, 6, 7,  0, 1, 5, 4,  1, 2, 6, 5,  2, 3, 7, 6,  3, 0, 4, 7]
                    point3f[] points = [(-0.5, -0.5, -0.5), (0.5, -0.5, -0.5), (0.5, 0.5, -0.5), (-0.5, 0.5, -0.5), (-0.5, -0.5, 0.5), (0.5, -0.5, 0.5), (0.5, 0.5, 0.5), (-0.5, 0.5, 0.5)]
                    color3f[] primvars:displayColor = [(0.9, 0.9, 0.9)]
                    double3 xformOp:scale = (0.6000000000000001, 0.05, 1.06)
                    double3 xformOp:translate = (-0.018571000000000004, 0.1, 0.0)
                    double3 xformOp:rotateXYZ = (0, 0, 0)
                    uniform token[] xformOpOrder = ["xformOp:translate", "xformOp:rotateXYZ", "xformOp:scale"]
                    rel material:binding = </ASSET_ReferenceFabric_001/Materials/M_WhiteArmor>
                }
                
            
        }
    

        
    
        
            
    
        def Xform "prim_swf_right_03_group"
        {
            point3f[] points = [(0, 0, 0)]
            double3 xformOp:translate = (2.2857, -0.2507, 2)
            double3 xformOp:scale = (0.3557, 0.05, 0.9857)
            double3 xformOp:rotateXYZ = (3.0714, 76, 0)
            uniform token[] xformOpOrder = ["xformOp:translate", "xformOp:rotateXYZ", "xformOp:scale"]

            
                
                
                
                def Mesh "prim_swf_right_03_feather_blade_0"
                {
                    int[] faceVertexCounts = [4, 4, 4, 4, 4, 4]
                    int[] faceVertexIndices = [0, 1, 2, 3,  4, 5, 6, 7,  0, 1, 5, 4,  1, 2, 6, 5,  2, 3, 7, 6,  3, 0, 4, 7]
                    point3f[] points = [(-0.5, -0.5, -0.5), (0.5, -0.5, -0.5), (0.5, 0.5, -0.5), (-0.5, 0.5, -0.5), (-0.5, -0.5, 0.5), (0.5, -0.5, 0.5), (0.5, 0.5, 0.5), (-0.5, 0.5, 0.5)]
                    color3f[] primvars:displayColor = [(0.9, 0.9, 0.9)]
                    double3 xformOp:scale = (0.8, 0.05, 1.5)
                    double3 xformOp:translate = (-0.022857, 0, 0.0)
                    double3 xformOp:rotateXYZ = (0, 0, 0)
                    uniform token[] xformOpOrder = ["xformOp:translate", "xformOp:rotateXYZ", "xformOp:scale"]
                    rel material:binding = </ASSET_ReferenceFabric_001/Materials/M_WhiteArmor>
                }
                
                
                def Mesh "prim_swf_right_03_feather_blade_1"
                {
                    int[] faceVertexCounts = [4, 4, 4, 4, 4, 4]
                    int[] faceVertexIndices = [0, 1, 2, 3,  4, 5, 6, 7,  0, 1, 5, 4,  1, 2, 6, 5,  2, 3, 7, 6,  3, 0, 4, 7]
                    point3f[] points = [(-0.5, -0.5, -0.5), (0.5, -0.5, -0.5), (0.5, 0.5, -0.5), (-0.5, 0.5, -0.5), (-0.5, -0.5, 0.5), (0.5, -0.5, 0.5), (0.5, 0.5, 0.5), (-0.5, 0.5, 0.5)]
                    color3f[] primvars:displayColor = [(0.9, 0.9, 0.9)]
                    double3 xformOp:scale = (0.7000000000000001, 0.05, 1.28)
                    double3 xformOp:translate = (-0.021856999999999998, 0.05, 0.0)
                    double3 xformOp:rotateXYZ = (0, 20, 0)
                    uniform token[] xformOpOrder = ["xformOp:translate", "xformOp:rotateXYZ", "xformOp:scale"]
                    rel material:binding = </ASSET_ReferenceFabric_001/Materials/M_WhiteArmor>
                }
                
                
                def Mesh "prim_swf_right_03_feather_blade_2"
                {
                    int[] faceVertexCounts = [4, 4, 4, 4, 4, 4]
                    int[] faceVertexIndices = [0, 1, 2, 3,  4, 5, 6, 7,  0, 1, 5, 4,  1, 2, 6, 5,  2, 3, 7, 6,  3, 0, 4, 7]
                    point3f[] points = [(-0.5, -0.5, -0.5), (0.5, -0.5, -0.5), (0.5, 0.5, -0.5), (-0.5, 0.5, -0.5), (-0.5, -0.5, 0.5), (0.5, -0.5, 0.5), (0.5, 0.5, 0.5), (-0.5, 0.5, 0.5)]
                    color3f[] primvars:displayColor = [(0.9, 0.9, 0.9)]
                    double3 xformOp:scale = (0.6000000000000001, 0.05, 1.06)
                    double3 xformOp:translate = (-0.020857, 0.1, 0.0)
                    double3 xformOp:rotateXYZ = (0, 0, 0)
                    uniform token[] xformOpOrder = ["xformOp:translate", "xformOp:rotateXYZ", "xformOp:scale"]
                    rel material:binding = </ASSET_ReferenceFabric_001/Materials/M_WhiteArmor>
                }
                
            
        }
    

        
    
        
            
    
        def Xform "prim_swf_right_04_group"
        {
            point3f[] points = [(0, 0, 0)]
            double3 xformOp:translate = (2.5143, -0.1377, 2.1)
            double3 xformOp:scale = (0.3243, 0.05, 0.9143)
            double3 xformOp:rotateXYZ = (3.9286, 74, 0)
            uniform token[] xformOpOrder = ["xformOp:translate", "xformOp:rotateXYZ", "xformOp:scale"]

            
                
                
                
                def Mesh "prim_swf_right_04_feather_blade_0"
                {
                    int[] faceVertexCounts = [4, 4, 4, 4, 4, 4]
                    int[] faceVertexIndices = [0, 1, 2, 3,  4, 5, 6, 7,  0, 1, 5, 4,  1, 2, 6, 5,  2, 3, 7, 6,  3, 0, 4, 7]
                    point3f[] points = [(-0.5, -0.5, -0.5), (0.5, -0.5, -0.5), (0.5, 0.5, -0.5), (-0.5, 0.5, -0.5), (-0.5, -0.5, 0.5), (0.5, -0.5, 0.5), (0.5, 0.5, 0.5), (-0.5, 0.5, 0.5)]
                    color3f[] primvars:displayColor = [(0.9, 0.9, 0.9)]
                    double3 xformOp:scale = (0.8, 0.05, 1.5)
                    double3 xformOp:translate = (-0.025143, 0, 0.0)
                    double3 xformOp:rotateXYZ = (0, 0, 0)
                    uniform token[] xformOpOrder = ["xformOp:translate", "xformOp:rotateXYZ", "xformOp:scale"]
                    rel material:binding = </ASSET_ReferenceFabric_001/Materials/M_WhiteArmor>
                }
                
                
                def Mesh "prim_swf_right_04_feather_blade_1"
                {
                    int[] faceVertexCounts = [4, 4, 4, 4, 4, 4]
                    int[] faceVertexIndices = [0, 1, 2, 3,  4, 5, 6, 7,  0, 1, 5, 4,  1, 2, 6, 5,  2, 3, 7, 6,  3, 0, 4, 7]
                    point3f[] points = [(-0.5, -0.5, -0.5), (0.5, -0.5, -0.5), (0.5, 0.5, -0.5), (-0.5, 0.5, -0.5), (-0.5, -0.5, 0.5), (0.5, -0.5, 0.5), (0.5, 0.5, 0.5), (-0.5, 0.5, 0.5)]
                    color3f[] primvars:displayColor = [(0.9, 0.9, 0.9)]
                    double3 xformOp:scale = (0.7000000000000001, 0.05, 1.28)
                    double3 xformOp:translate = (-0.024142999999999998, 0.05, 0.0)
                    double3 xformOp:rotateXYZ = (0, 20, 0)
                    uniform token[] xformOpOrder = ["xformOp:translate", "xformOp:rotateXYZ", "xformOp:scale"]
                    rel material:binding = </ASSET_ReferenceFabric_001/Materials/M_WhiteArmor>
                }
                
                
                def Mesh "prim_swf_right_04_feather_blade_2"
                {
                    int[] faceVertexCounts = [4, 4, 4, 4, 4, 4]
                    int[] faceVertexIndices = [0, 1, 2, 3,  4, 5, 6, 7,  0, 1, 5, 4,  1, 2, 6, 5,  2, 3, 7, 6,  3, 0, 4, 7]
                    point3f[] points = [(-0.5, -0.5, -0.5), (0.5, -0.5, -0.5), (0.5, 0.5, -0.5), (-0.5, 0.5, -0.5), (-0.5, -0.5, 0.5), (0.5, -0.5, 0.5), (0.5, 0.5, 0.5), (-0.5, 0.5, 0.5)]
                    color3f[] primvars:displayColor = [(0.9, 0.9, 0.9)]
                    double3 xformOp:scale = (0.6000000000000001, 0.05, 1.06)
                    double3 xformOp:translate = (-0.023142999999999997, 0.1, 0.0)
                    double3 xformOp:rotateXYZ = (0, 0, 0)
                    uniform token[] xformOpOrder = ["xformOp:translate", "xformOp:rotateXYZ", "xformOp:scale"]
                    rel material:binding = </ASSET_ReferenceFabric_001/Materials/M_WhiteArmor>
                }
                
            
        }
    

        
    
        
            
    
        def Xform "prim_swf_right_05_group"
        {
            point3f[] points = [(0, 0, 0)]
            double3 xformOp:translate = (2.7429, -0.0157, 2.2)
            double3 xformOp:scale = (0.2929, 0.05, 0.8429)
            double3 xformOp:rotateXYZ = (4.7857, 76, 0)
            uniform token[] xformOpOrder = ["xformOp:translate", "xformOp:rotateXYZ", "xformOp:scale"]

            
                
                
                
                def Mesh "prim_swf_right_05_feather_blade_0"
                {
                    int[] faceVertexCounts = [4, 4, 4, 4, 4, 4]
                    int[] faceVertexIndices = [0, 1, 2, 3,  4, 5, 6, 7,  0, 1, 5, 4,  1, 2, 6, 5,  2, 3, 7, 6,  3, 0, 4, 7]
                    point3f[] points = [(-0.5, -0.5, -0.5), (0.5, -0.5, -0.5), (0.5, 0.5, -0.5), (-0.5, 0.5, -0.5), (-0.5, -0.5, 0.5), (0.5, -0.5, 0.5), (0.5, 0.5, 0.5), (-0.5, 0.5, 0.5)]
                    color3f[] primvars:displayColor = [(0.9, 0.9, 0.9)]
                    double3 xformOp:scale = (0.8, 0.05, 1.5)
                    double3 xformOp:translate = (-0.027429000000000002, 0, 0.0)
                    double3 xformOp:rotateXYZ = (0, 0, 0)
                    uniform token[] xformOpOrder = ["xformOp:translate", "xformOp:rotateXYZ", "xformOp:scale"]
                    rel material:binding = </ASSET_ReferenceFabric_001/Materials/M_WhiteArmor>
                }
                
                
                def Mesh "prim_swf_right_05_feather_blade_1"
                {
                    int[] faceVertexCounts = [4, 4, 4, 4, 4, 4]
                    int[] faceVertexIndices = [0, 1, 2, 3,  4, 5, 6, 7,  0, 1, 5, 4,  1, 2, 6, 5,  2, 3, 7, 6,  3, 0, 4, 7]
                    point3f[] points = [(-0.5, -0.5, -0.5), (0.5, -0.5, -0.5), (0.5, 0.5, -0.5), (-0.5, 0.5, -0.5), (-0.5, -0.5, 0.5), (0.5, -0.5, 0.5), (0.5, 0.5, 0.5), (-0.5, 0.5, 0.5)]
                    color3f[] primvars:displayColor = [(0.9, 0.9, 0.9)]
                    double3 xformOp:scale = (0.7000000000000001, 0.05, 1.28)
                    double3 xformOp:translate = (-0.026429, 0.05, 0.0)
                    double3 xformOp:rotateXYZ = (0, 20, 0)
                    uniform token[] xformOpOrder = ["xformOp:translate", "xformOp:rotateXYZ", "xformOp:scale"]
                    rel material:binding = </ASSET_ReferenceFabric_001/Materials/M_WhiteArmor>
                }
                
                
                def Mesh "prim_swf_right_05_feather_blade_2"
                {
                    int[] faceVertexCounts = [4, 4, 4, 4, 4, 4]
                    int[] faceVertexIndices = [0, 1, 2, 3,  4, 5, 6, 7,  0, 1, 5, 4,  1, 2, 6, 5,  2, 3, 7, 6,  3, 0, 4, 7]
                    point3f[] points = [(-0.5, -0.5, -0.5), (0.5, -0.5, -0.5), (0.5, 0.5, -0.5), (-0.5, 0.5, -0.5), (-0.5, -0.5, 0.5), (0.5, -0.5, 0.5), (0.5, 0.5, 0.5), (-0.5, 0.5, 0.5)]
                    color3f[] primvars:displayColor = [(0.9, 0.9, 0.9)]
                    double3 xformOp:scale = (0.6000000000000001, 0.05, 1.06)
                    double3 xformOp:translate = (-0.025429, 0.1, 0.0)
                    double3 xformOp:rotateXYZ = (0, 0, 0)
                    uniform token[] xformOpOrder = ["xformOp:translate", "xformOp:rotateXYZ", "xformOp:scale"]
                    rel material:binding = </ASSET_ReferenceFabric_001/Materials/M_WhiteArmor>
                }
                
            
        }
    

        
    
        
            
    
        def Xform "prim_swf_right_06_group"
        {
            point3f[] points = [(0, 0, 0)]
            double3 xformOp:translate = (2.9714, 0.1138, 2.3)
            double3 xformOp:scale = (0.2614, 0.05, 0.7714)
            double3 xformOp:rotateXYZ = (5.6429, 74, 0)
            uniform token[] xformOpOrder = ["xformOp:translate", "xformOp:rotateXYZ", "xformOp:scale"]

            
                
                
                
                def Mesh "prim_swf_right_06_feather_blade_0"
                {
                    int[] faceVertexCounts = [4, 4, 4, 4, 4, 4]
                    int[] faceVertexIndices = [0, 1, 2, 3,  4, 5, 6, 7,  0, 1, 5, 4,  1, 2, 6, 5,  2, 3, 7, 6,  3, 0, 4, 7]
                    point3f[] points = [(-0.5, -0.5, -0.5), (0.5, -0.5, -0.5), (0.5, 0.5, -0.5), (-0.5, 0.5, -0.5), (-0.5, -0.5, 0.5), (0.5, -0.5, 0.5), (0.5, 0.5, 0.5), (-0.5, 0.5, 0.5)]
                    color3f[] primvars:displayColor = [(0.9, 0.9, 0.9)]
                    double3 xformOp:scale = (0.8, 0.05, 1.5)
                    double3 xformOp:translate = (-0.029714, 0, 0.0)
                    double3 xformOp:rotateXYZ = (0, 0, 0)
                    uniform token[] xformOpOrder = ["xformOp:translate", "xformOp:rotateXYZ", "xformOp:scale"]
                    rel material:binding = </ASSET_ReferenceFabric_001/Materials/M_WhiteArmor>
                }
                
                
                def Mesh "prim_swf_right_06_feather_blade_1"
                {
                    int[] faceVertexCounts = [4, 4, 4, 4, 4, 4]
                    int[] faceVertexIndices = [0, 1, 2, 3,  4, 5, 6, 7,  0, 1, 5, 4,  1, 2, 6, 5,  2, 3, 7, 6,  3, 0, 4, 7]
                    point3f[] points = [(-0.5, -0.5, -0.5), (0.5, -0.5, -0.5), (0.5, 0.5, -0.5), (-0.5, 0.5, -0.5), (-0.5, -0.5, 0.5), (0.5, -0.5, 0.5), (0.5, 0.5, 0.5), (-0.5, 0.5, 0.5)]
                    color3f[] primvars:displayColor = [(0.9, 0.9, 0.9)]
                    double3 xformOp:scale = (0.7000000000000001, 0.05, 1.28)
                    double3 xformOp:translate = (-0.028714, 0.05, 0.0)
                    double3 xformOp:rotateXYZ = (0, 20, 0)
                    uniform token[] xformOpOrder = ["xformOp:translate", "xformOp:rotateXYZ", "xformOp:scale"]
                    rel material:binding = </ASSET_ReferenceFabric_001/Materials/M_WhiteArmor>
                }
                
                
                def Mesh "prim_swf_right_06_feather_blade_2"
                {
                    int[] faceVertexCounts = [4, 4, 4, 4, 4, 4]
                    int[] faceVertexIndices = [0, 1, 2, 3,  4, 5, 6, 7,  0, 1, 5, 4,  1, 2, 6, 5,  2, 3, 7, 6,  3, 0, 4, 7]
                    point3f[] points = [(-0.5, -0.5, -0.5), (0.5, -0.5, -0.5), (0.5, 0.5, -0.5), (-0.5, 0.5, -0.5), (-0.5, -0.5, 0.5), (0.5, -0.5, 0.5), (0.5, 0.5, 0.5), (-0.5, 0.5, 0.5)]
                    color3f[] primvars:displayColor = [(0.9, 0.9, 0.9)]
                    double3 xformOp:scale = (0.6000000000000001, 0.05, 1.06)
                    double3 xformOp:translate = (-0.027714000000000003, 0.1, 0.0)
                    double3 xformOp:rotateXYZ = (0, 0, 0)
                    uniform token[] xformOpOrder = ["xformOp:translate", "xformOp:rotateXYZ", "xformOp:scale"]
                    rel material:binding = </ASSET_ReferenceFabric_001/Materials/M_WhiteArmor>
                }
                
            
        }
    

        
    
        
            
    
        def Xform "prim_swf_right_07_group"
        {
            point3f[] points = [(0, 0, 0)]
            double3 xformOp:translate = (3.2, 0.25, 2.4)
            double3 xformOp:scale = (0.23, 0.05, 0.7)
            double3 xformOp:rotateXYZ = (6.5, 76, 0)
            uniform token[] xformOpOrder = ["xformOp:translate", "xformOp:rotateXYZ", "xformOp:scale"]

            
                
                
                
                def Mesh "prim_swf_right_07_feather_blade_0"
                {
                    int[] faceVertexCounts = [4, 4, 4, 4, 4, 4]
                    int[] faceVertexIndices = [0, 1, 2, 3,  4, 5, 6, 7,  0, 1, 5, 4,  1, 2, 6, 5,  2, 3, 7, 6,  3, 0, 4, 7]
                    point3f[] points = [(-0.5, -0.5, -0.5), (0.5, -0.5, -0.5), (0.5, 0.5, -0.5), (-0.5, 0.5, -0.5), (-0.5, -0.5, 0.5), (0.5, -0.5, 0.5), (0.5, 0.5, 0.5), (-0.5, 0.5, 0.5)]
                    color3f[] primvars:displayColor = [(0.9, 0.9, 0.9)]
                    double3 xformOp:scale = (0.8, 0.05, 1.5)
                    double3 xformOp:translate = (-0.032, 0, 0.0)
                    double3 xformOp:rotateXYZ = (0, 0, 0)
                    uniform token[] xformOpOrder = ["xformOp:translate", "xformOp:rotateXYZ", "xformOp:scale"]
                    rel material:binding = </ASSET_ReferenceFabric_001/Materials/M_WhiteArmor>
                }
                
                
                def Mesh "prim_swf_right_07_feather_blade_1"
                {
                    int[] faceVertexCounts = [4, 4, 4, 4, 4, 4]
                    int[] faceVertexIndices = [0, 1, 2, 3,  4, 5, 6, 7,  0, 1, 5, 4,  1, 2, 6, 5,  2, 3, 7, 6,  3, 0, 4, 7]
                    point3f[] points = [(-0.5, -0.5, -0.5), (0.5, -0.5, -0.5), (0.5, 0.5, -0.5), (-0.5, 0.5, -0.5), (-0.5, -0.5, 0.5), (0.5, -0.5, 0.5), (0.5, 0.5, 0.5), (-0.5, 0.5, 0.5)]
                    color3f[] primvars:displayColor = [(0.9, 0.9, 0.9)]
                    double3 xformOp:scale = (0.7000000000000001, 0.05, 1.28)
                    double3 xformOp:translate = (-0.031, 0.05, 0.0)
                    double3 xformOp:rotateXYZ = (0, 20, 0)
                    uniform token[] xformOpOrder = ["xformOp:translate", "xformOp:rotateXYZ", "xformOp:scale"]
                    rel material:binding = </ASSET_ReferenceFabric_001/Materials/M_WhiteArmor>
                }
                
                
                def Mesh "prim_swf_right_07_feather_blade_2"
                {
                    int[] faceVertexCounts = [4, 4, 4, 4, 4, 4]
                    int[] faceVertexIndices = [0, 1, 2, 3,  4, 5, 6, 7,  0, 1, 5, 4,  1, 2, 6, 5,  2, 3, 7, 6,  3, 0, 4, 7]
                    point3f[] points = [(-0.5, -0.5, -0.5), (0.5, -0.5, -0.5), (0.5, 0.5, -0.5), (-0.5, 0.5, -0.5), (-0.5, -0.5, 0.5), (0.5, -0.5, 0.5), (0.5, 0.5, 0.5), (-0.5, 0.5, 0.5)]
                    color3f[] primvars:displayColor = [(0.9, 0.9, 0.9)]
                    double3 xformOp:scale = (0.6000000000000001, 0.05, 1.06)
                    double3 xformOp:translate = (-0.03, 0.1, 0.0)
                    double3 xformOp:rotateXYZ = (0, 0, 0)
                    uniform token[] xformOpOrder = ["xformOp:translate", "xformOp:rotateXYZ", "xformOp:scale"]
                    rel material:binding = </ASSET_ReferenceFabric_001/Materials/M_WhiteArmor>
                }
                
            
        }
    

        
    
        
            
    
        def Xform "prim_wing_root_right_group"
        {
            point3f[] points = [(0, 0, 0)]
            double3 xformOp:translate = (1, -0.5, 1)
            double3 xformOp:scale = (1, 1, 1)
            double3 xformOp:rotateXYZ = (0, 0, 0)
            uniform token[] xformOpOrder = ["xformOp:translate", "xformOp:rotateXYZ", "xformOp:scale"]

            
                
                def Cylinder "subframe_core_0"
                {
                    double radius = 0.3
                    double height = 0.8
                    double3 xformOp:rotateXYZ = (90, 0, 0)
                    uniform token[] xformOpOrder = ["xformOp:rotateXYZ"]
                    rel material:binding = </ASSET_ReferenceFabric_001/Materials/M_DarkFrame>
                }
                def Sphere "subframe_joint_0"
                {
                    double radius = 0.35
                    double3 xformOp:scale = (1.0, 0.5, 1.0)
                    double3 xformOp:translate = (0.0, 0.4, 0.0)
                    uniform token[] xformOpOrder = ["xformOp:translate", "xformOp:scale"]
                    rel material:binding = </ASSET_ReferenceFabric_001/Materials/M_WhiteArmor>
                }
                
                def Cylinder "subframe_core_1"
                {
                    double radius = 0.26
                    double height = 0.9
                    double3 xformOp:rotateXYZ = (90, 0, 0)
                    uniform token[] xformOpOrder = ["xformOp:rotateXYZ"]
                    rel material:binding = </ASSET_ReferenceFabric_001/Materials/M_DarkFrame>
                }
                def Sphere "subframe_joint_1"
                {
                    double radius = 0.35
                    double3 xformOp:scale = (1.0, 0.5, 1.0)
                    double3 xformOp:translate = (0.0, 0.45, 0.0)
                    uniform token[] xformOpOrder = ["xformOp:translate", "xformOp:scale"]
                    rel material:binding = </ASSET_ReferenceFabric_001/Materials/M_WhiteArmor>
                }
                
                def Cylinder "subframe_core_2"
                {
                    double radius = 0.21999999999999997
                    double height = 1
                    double3 xformOp:rotateXYZ = (90, 0, 0)
                    uniform token[] xformOpOrder = ["xformOp:rotateXYZ"]
                    rel material:binding = </ASSET_ReferenceFabric_001/Materials/M_DarkFrame>
                }
                def Sphere "subframe_joint_2"
                {
                    double radius = 0.35
                    double3 xformOp:scale = (1.0, 0.5, 1.0)
                    double3 xformOp:translate = (0.0, 0.5, 0.0)
                    uniform token[] xformOpOrder = ["xformOp:translate", "xformOp:scale"]
                    rel material:binding = </ASSET_ReferenceFabric_001/Materials/M_WhiteArmor>
                }
                
                def Cylinder "subframe_core_3"
                {
                    double radius = 0.18
                    double height = 1.1
                    double3 xformOp:rotateXYZ = (90, 0, 0)
                    uniform token[] xformOpOrder = ["xformOp:rotateXYZ"]
                    rel material:binding = </ASSET_ReferenceFabric_001/Materials/M_DarkFrame>
                }
                def Sphere "subframe_joint_3"
                {
                    double radius = 0.35
                    double3 xformOp:scale = (1.0, 0.5, 1.0)
                    double3 xformOp:translate = (0.0, 0.55, 0.0)
                    uniform token[] xformOpOrder = ["xformOp:translate", "xformOp:scale"]
                    rel material:binding = </ASSET_ReferenceFabric_001/Materials/M_WhiteArmor>
                }
                
                def Cylinder "subframe_core_4"
                {
                    double radius = 0.13999999999999999
                    double height = 1.2000000000000002
                    double3 xformOp:rotateXYZ = (90, 0, 0)
                    uniform token[] xformOpOrder = ["xformOp:rotateXYZ"]
                    rel material:binding = </ASSET_ReferenceFabric_001/Materials/M_DarkFrame>
                }
                def Sphere "subframe_joint_4"
                {
                    double radius = 0.35
                    double3 xformOp:scale = (1.0, 0.5, 1.0)
                    double3 xformOp:translate = (0.0, 0.6000000000000001, 0.0)
                    uniform token[] xformOpOrder = ["xformOp:translate", "xformOp:scale"]
                    rel material:binding = </ASSET_ReferenceFabric_001/Materials/M_WhiteArmor>
                }
                
                def Cylinder "subframe_core_5"
                {
                    double radius = 0.09999999999999998
                    double height = 1.3
                    double3 xformOp:rotateXYZ = (90, 0, 0)
                    uniform token[] xformOpOrder = ["xformOp:rotateXYZ"]
                    rel material:binding = </ASSET_ReferenceFabric_001/Materials/M_DarkFrame>
                }
                def Sphere "subframe_joint_5"
                {
                    double radius = 0.35
                    double3 xformOp:scale = (1.0, 0.5, 1.0)
                    double3 xformOp:translate = (0.0, 0.65, 0.0)
                    uniform token[] xformOpOrder = ["xformOp:translate", "xformOp:scale"]
                    rel material:binding = </ASSET_ReferenceFabric_001/Materials/M_WhiteArmor>
                }
                
            
        }
    

        
    
}




















